<svg width="91" height="22" viewBox="0 0 91 22" fill="none" xmlns="http://www.w3.org/2000/svg">
<g clip-path="url(#clip0_37_19)">
<path d="M7.00112 7.65679C7.45889 7.30892 8.80594 6.2405 10.8526 6.2405C14.4618 6.2405 16.3742 8.83234 16.3742 13.3215C16.3742 18.3456 13.7347 21.2584 8.5633 21.2584C5.60029 21.2584 2.9608 20.6698 2.9608 20.6698V3.11341L0.94043 2.5794V0.441314L7.0007 0.227051L7.00112 7.65679ZM7.00112 17.8372C7.00112 17.8372 7.62066 18.0515 8.99439 18.0515C11.3379 18.0515 12.1996 16.2873 12.1996 13.5892C12.1996 10.9167 11.445 9.44701 9.56014 9.44701C7.94418 9.44701 7.00112 10.649 7.00112 10.649V17.8372Z" fill="#E12C18"/>
<path d="M27.0945 19.201C27.0945 19.201 25.0212 21.2055 22.7315 21.2055C20.1191 21.2055 18.5303 19.6812 18.5303 17.0091C18.5303 13.8568 20.9271 12.6002 25.0212 12.6002H26.9061V11.1305C26.9061 9.7676 26.179 9.17941 24.8324 9.17941C23.4586 9.17941 22.4622 9.58064 22.4622 9.58064L22.0582 11.2641H19.6343L19.4454 7.30854C19.4454 7.30854 22.7044 6.24011 25.2901 6.24011C29.3838 6.24011 30.946 7.6564 30.946 11.5305V18.1309L32.9664 18.612V20.7492L27.5798 20.9374L27.0945 19.201ZM25.371 14.871C23.2698 14.871 22.4351 15.4051 22.4351 16.6083C22.4351 17.6234 23.0009 18.212 24.0244 18.212C25.4519 18.212 26.9061 16.6613 26.9061 16.6613V14.871H25.371Z" fill="#E12C18"/>
<path d="M39.6189 17.9977H43.5516L44.0094 15.7264H46.4338V20.9383H34.7168V18.4792L41.5584 9.44744H37.8678L37.4643 11.3981H35.0403V6.5069H46.3529V8.99202L39.6189 17.9977Z" fill="#E12C18"/>
<path d="M53.22 17.9977H57.1532L57.611 15.7264H60.0349V20.9383H48.3184V18.4792L55.1599 9.44744H51.4694L51.0654 11.3981H48.6419V6.5069H59.9536V8.99202L53.22 17.9977Z" fill="#E12C18"/>
<path d="M70.4854 19.201C70.4854 19.201 68.4109 21.2055 66.122 21.2055C63.5096 21.2055 61.9199 19.6812 61.9199 17.0091C61.9199 13.8568 64.3172 12.6002 68.4109 12.6002H70.2966V11.1305C70.2966 9.7676 69.5686 9.17941 68.2224 9.17941C66.8487 9.17941 65.8523 9.58064 65.8523 9.58064L65.4483 11.2641H63.0243L62.8355 7.30854C62.8355 7.30854 66.0941 6.24011 68.6806 6.24011C72.7743 6.24011 74.3369 7.6564 74.3369 11.5305V18.1309L76.3564 18.612V20.7492L70.9699 20.9374L70.4854 19.201ZM68.7627 14.871C66.6607 14.871 65.8247 15.4051 65.8247 16.6083C65.8247 17.6234 66.3901 18.212 67.4144 18.212C68.8424 18.212 70.2966 16.6613 70.2966 16.6613V14.871H68.7627Z" fill="#E12C18"/>
<path d="M83.8731 8.3509C83.8731 8.3509 85.8126 6.24011 87.617 6.24011C89.0979 6.24011 90.1227 6.72076 90.1227 6.72076L89.9063 11.8515H87.4828L87.0788 9.57981C85.5166 9.57981 84.17 11.0763 84.17 11.0763V18.1305L86.8628 18.7981V20.9374H77.9746V18.7981L80.1301 18.1305V9.44704L77.9746 8.77901V6.64093L83.6305 6.50732L83.8731 8.3509Z" fill="#E12C18"/>
</g>
<defs>
<clipPath id="clip0_37_19">
<rect width="91" height="21.5091" fill="white"/>
</clipPath>
</defs>
</svg>
