<svg width="117" height="15" viewBox="0 0 117 15" fill="none" xmlns="http://www.w3.org/2000/svg">
<g clip-path="url(#clip0_37_49)">
<path d="M0 7.4722C0 2.83421 3.01268 0.0224609 7.63733 0.0224609C10.3665 0.0224609 12.5899 1.09705 13.9851 2.79524L11.217 5.1003C10.5277 4.08697 9.2993 3.3576 7.7596 3.3576C5.29167 3.3576 3.7186 4.8943 3.7186 7.46663C3.7186 10.0557 5.2972 11.6592 7.7596 11.6592C9.31597 11.6592 10.5277 10.9521 11.217 9.93877L13.9851 12.2661C12.5899 13.9476 10.55 14.9999 7.63733 14.9999C3.01268 14.9999 0 12.1269 0 7.4722Z" fill="black"/>
<path d="M15.6582 0.300659H19.2768V14.6935H15.6582V0.300659Z" fill="black"/>
<path d="M35.1407 0.30064V14.7324H33.3231L25.4023 6.75933V14.6935H21.8838V0.283936H23.6847L31.6278 8.24036V0.30064H35.1407Z" fill="black"/>
<path d="M50.8045 0.30064V14.7324H48.9869L41.0662 6.75376V14.6879H37.5479V0.283936H39.3485L47.2915 8.24036V0.30064H50.8045Z" fill="black"/>
<path d="M62.7042 12.3494H56.9626L55.9119 14.699H52.0322L58.6412 0.283936H61.0256L67.6346 14.699H63.7549L62.7042 12.3494ZM58.0352 9.49312H61.6539L60.8256 7.54996L59.8586 4.73819L58.8689 7.54996L58.0352 9.49312Z" fill="black"/>
<path d="M84.166 0.283936V14.699H80.7087V7.79493L77.151 12.3104H75.917L72.3597 7.83389V14.699H68.9023V0.283936H70.7423L76.5397 7.69473L82.3203 0.283936H84.166Z" fill="black"/>
<path d="M86.1621 7.511C86.1621 3.09571 89.2971 0 93.9441 0C98.5521 0 101.748 3.03447 101.748 7.511C101.748 11.904 98.6354 14.9997 93.9441 14.9997C89.3751 14.9997 86.1621 11.9653 86.1621 7.511ZM98.0241 7.511C98.0241 5.02217 96.4288 3.31842 93.9441 3.31842C91.5371 3.31842 89.8808 4.97763 89.8808 7.511C89.8808 9.9831 91.4761 11.6813 93.9441 11.6813C96.3898 11.6813 98.0241 10.0221 98.0241 7.511Z" fill="black"/>
<path d="M117 0.30064V14.7324H115.182L107.262 6.75376V14.6879H103.743V0.283936H105.544L113.487 8.24036V0.30064H117Z" fill="black"/>
</g>
<defs>
<clipPath id="clip0_37_49">
<rect width="117" height="15" fill="white"/>
</clipPath>
</defs>
</svg>
