<svg width="116" height="30" viewBox="0 0 116 30" fill="none" xmlns="http://www.w3.org/2000/svg">
<g clip-path="url(#clip0_37_28)">
<path d="M79.5562 29.7131C80.0406 26.6591 78.3804 26.2948 78.242 23.9348C78.242 23.9869 77.8099 26.0865 76.6685 26.0865C75.0083 26.0865 73.3486 22.0955 73.8156 19.2671C71.4809 21.1238 69.2159 23.8134 69.3369 28.2035C67.262 23.154 67.6941 18.7986 71.8269 12.6385C74.8704 8.10965 76.4265 5.31593 74.6628 0.197021C79.1585 4.3095 76.8935 12.2048 76.4783 14.6688C76.0632 17.1328 77.3081 17.7401 77.3081 17.7401C77.118 16.0049 78.467 14.6514 78.9857 14.4259C78.1902 16.0223 79.3835 18.573 80.3169 19.805C82.8586 23.1367 81.7351 27.1624 79.5562 29.7131Z" fill="#EC2B39"/>
<path d="M17.135 18.0697C17.135 16.6294 16.7546 15.4842 16.011 14.6686C15.2675 13.8531 14.1955 13.4366 12.8467 13.4366H8.48926V28.186H11.8092V23.1191H12.3107L14.1436 28.2034H17.5154V27.5613L15.475 22.1127C16.5644 21.2625 17.135 19.909 17.135 18.0697ZM11.8092 16.6468H12.8294C13.1234 16.6468 13.8323 16.6468 13.8323 18.3126C13.8496 18.7464 13.7459 19.1976 13.5384 19.562C13.3655 19.8049 13.0888 19.9437 12.7948 19.9264H11.8265V16.6468H11.8092Z" fill="black"/>
<path d="M21.735 13.4366H18.415V28.186H21.735V13.4366Z" fill="black"/>
<path d="M38.0742 20.7594L35.1692 13.4541H32.0049V28.2035H35.3075V20.8982L38.1952 28.2035H41.3768V13.4541H38.0742V20.7594Z" fill="black"/>
<path d="M46.4786 13.4366H42.8301V28.186H46.4094C48.0175 28.186 49.3141 27.6134 50.2306 26.4681C51.147 25.3229 51.597 23.8132 51.597 21.9045V19.6487C51.5796 17.7573 51.1127 16.2477 50.2137 15.1371C49.2798 14.0266 48.0175 13.4366 46.4786 13.4366ZM46.444 25.0105H46.1327V16.6468H46.5823C47.2048 16.6641 47.6198 16.8724 47.8619 17.2541C48.0521 17.5491 48.2769 18.2432 48.2769 19.7355V22.1474C48.2596 23.5356 48.0175 24.1776 47.8273 24.4726C47.5679 24.837 47.1183 25.0105 46.444 25.0105Z" fill="black"/>
<path d="M56.1447 13.4541H52.8418V28.2035H60.4676V25.0107H56.1447V13.4541Z" fill="black"/>
<path d="M63.1309 18.6077L61.6091 13.4541H57.9951L61.4538 22.8069V28.2035H64.808V22.8069L68.2662 13.4541H64.6527L63.1309 18.6077Z" fill="black"/>
<path d="M-0.000976562 13.4541V28.2035H3.31899V22.5293H6.65627V19.3538H3.31899V16.6469H7.60727V13.4541H-0.000976562Z" fill="black"/>
<path d="M26.5758 25.0107V22.1823H29.9131V19.0762H26.5758V16.6469H31.0889V13.4541H23.2559V28.2035H31.1062V25.0107H26.5758Z" fill="black"/>
<path d="M95.9487 13.4366H92.6289V28.186H95.9487V13.4366Z" fill="black"/>
<path d="M106.135 18.0697C106.135 16.6294 105.754 15.4842 105.011 14.6686C104.267 13.8531 103.195 13.4366 101.847 13.4366H97.4893V28.186H100.809V23.1191H101.31L103.143 28.2034H106.515V27.5613L104.475 22.1127C105.564 21.2625 106.135 19.909 106.135 18.0697ZM100.809 16.6468H101.829C102.123 16.6468 102.832 16.6468 102.832 18.3126C102.85 18.7464 102.746 19.1976 102.538 19.562C102.365 19.8049 102.088 19.9437 101.795 19.9264H100.809V16.6468Z" fill="black"/>
<path d="M84.0342 13.4541V28.2035H87.3545V22.5293H90.6918V19.3538H87.3545V16.6469H91.6426V13.4541H84.0342Z" fill="black"/>
<path d="M110.612 25.0107V22.1823H113.949V19.0762H110.612V16.6469H115.142V13.4541H107.292V28.2035H115.16V25.0107H110.612Z" fill="black"/>
</g>
<defs>
<clipPath id="clip0_37_28">
<rect width="115.161" height="30" fill="white"/>
</clipPath>
</defs>
</svg>
