<svg width="180" height="33" viewBox="0 0 180 33" fill="none" xmlns="http://www.w3.org/2000/svg">
<g clip-path="url(#clip0_1_17)">
<path d="M19.8009 25.4397V16.2671C19.8009 14.8578 19.4903 13.8426 18.8691 13.2215C18.2479 12.6005 17.4355 12.2899 16.4321 12.2899C15.4286 12.2899 14.6163 12.6005 13.9951 13.2215C13.3739 13.8426 13.0633 14.8578 13.0633 16.2671V25.4397H7.6875V16.2671C7.6875 14.7861 7.89059 13.4843 8.29675 12.3616C8.72681 11.2389 9.32413 10.3073 10.0887 9.56681C10.8532 8.80242 11.7731 8.22913 12.8482 7.84693C13.9234 7.46474 15.118 7.27365 16.4321 7.27365C17.7461 7.27365 18.9407 7.46474 20.0159 7.84693C21.091 8.20525 22.0109 8.76659 22.7754 9.53098C23.54 10.2715 24.1254 11.2031 24.5315 12.3258C24.9616 13.4485 25.1767 14.7622 25.1767 16.2671V25.4397H19.8009Z" fill="#0F172A"/>
<path d="M33.5605 18.0945V18.1662C33.7995 19.1455 34.2654 19.886 34.9582 20.3877C35.651 20.8654 36.4993 21.1043 37.5027 21.1043C38.2673 21.1043 38.9363 21.0087 39.5097 20.8177C40.0831 20.6266 40.537 20.2922 40.8715 19.8143H46.4266C45.8531 21.6537 44.7779 23.1347 43.201 24.2574C41.6241 25.3561 39.7247 25.9056 37.5027 25.9056C36.0931 25.9056 34.8029 25.6786 33.6323 25.2247C32.4853 24.747 31.4819 24.1021 30.6219 23.29C29.7855 22.4538 29.1285 21.4626 28.6507 20.3161C28.1967 19.1694 27.9698 17.9273 27.9698 16.5896C27.9698 15.2519 28.1967 14.0098 28.6507 12.8632C29.1285 11.7166 29.7855 10.7373 30.6219 9.92511C31.4819 9.08906 32.4853 8.44412 33.6323 7.99026C34.8029 7.51253 36.0931 7.27365 37.5027 7.27365C38.8885 7.27365 40.1548 7.51253 41.3016 7.99026C42.4724 8.44412 43.4758 9.08906 44.312 9.92511C45.1482 10.7373 45.7934 11.7166 46.2473 12.8632C46.7012 14.0098 46.9283 15.2519 46.9283 16.5896V18.0945H33.5605ZM37.5027 12.0749C36.5709 12.0749 35.7705 12.2899 35.1016 12.7199C34.4326 13.1499 33.9548 13.7829 33.6681 14.6189V14.6906H41.4092V14.6189C41.0986 13.7829 40.5969 13.1499 39.9039 12.7199C39.2349 12.2899 38.4346 12.0749 37.5027 12.0749Z" fill="#0F172A"/>
<path d="M61.8689 7.73947H67.2446V16.9122C67.2446 18.3931 67.0297 19.695 66.5996 20.8177C66.1935 21.9403 65.6081 22.8839 64.8435 23.6483C64.0789 24.3887 63.1592 24.95 62.084 25.3324C61.0088 25.7145 59.8142 25.9056 58.5001 25.9056C57.1861 25.9056 55.9914 25.7265 54.9162 25.3682C53.8412 24.9859 52.9213 24.4246 52.1568 23.6841C51.3922 22.9198 50.7948 21.9761 50.3649 20.8535C49.9587 19.7307 49.7556 18.417 49.7556 16.9122V7.73947H55.1314V16.9122C55.1314 18.3214 55.442 19.3366 56.0632 19.9578C56.6842 20.5788 57.4967 20.8893 58.5001 20.8893C59.5035 20.8893 60.3159 20.5788 60.9371 19.9578C61.5583 19.3366 61.8689 18.3214 61.8689 16.9122V7.73947Z" fill="#0F172A"/>
<path d="M79.5708 13.0066C79.4991 12.6005 79.296 12.2899 78.9616 12.0749C78.6271 11.8361 78.197 11.7166 77.6714 11.7166C76.9786 11.7166 76.4888 11.86 76.2021 12.1466C75.9154 12.4333 75.772 12.7916 75.772 13.2215C75.772 13.6276 75.9989 13.9142 76.4529 14.0815C76.9307 14.2487 77.5161 14.392 78.2089 14.5114C78.9019 14.6309 79.6545 14.7622 80.4669 14.9056C81.2792 15.0489 82.0318 15.2997 82.7246 15.658C83.4174 16.0163 83.9909 16.5299 84.4449 17.1987C84.9227 17.8676 85.1616 18.7872 85.1616 19.9576C85.1616 20.8177 84.9824 21.6178 84.6241 22.3583C84.2657 23.075 83.7519 23.696 83.083 24.2215C82.4379 24.747 81.6494 25.1531 80.7176 25.4397C79.7858 25.7504 78.7466 25.9056 77.5998 25.9056C76.4529 25.9056 75.4136 25.7623 74.4818 25.4757C73.5739 25.1889 72.7854 24.7828 72.1165 24.2574C71.4714 23.7319 70.9697 23.1228 70.6112 22.4299C70.2529 21.7134 70.0618 20.9251 70.0379 20.0653H75.3419C75.3657 20.9968 76.0945 21.4626 77.528 21.4626C78.3881 21.4626 78.9616 21.3312 79.2483 21.0685C79.5589 20.8057 79.7142 20.4355 79.7142 19.9576C79.7142 19.5516 79.4752 19.2649 78.9974 19.0977C78.5436 18.9305 77.9701 18.7872 77.2771 18.6678C76.5843 18.5484 75.8317 18.417 75.0193 18.2737C74.207 18.1304 73.4544 17.8796 72.7616 17.5213C72.0688 17.1628 71.4833 16.6493 71.0055 15.9805C70.5515 15.3117 70.3246 14.392 70.3246 13.2215C70.3246 12.3616 70.4919 11.5733 70.8263 10.8567C71.1847 10.1401 71.6744 9.51904 72.2957 8.99352C72.9169 8.44412 73.6695 8.0261 74.5534 7.73946C75.4614 7.42893 76.4648 7.27365 77.5638 7.27365C78.6629 7.27365 79.6544 7.42893 80.5385 7.73946C81.4225 8.0261 82.175 8.43216 82.7962 8.95768C83.4174 9.45931 83.8953 10.0684 84.2298 10.7851C84.5883 11.4778 84.7794 12.2183 84.8032 13.0066H79.5708Z" fill="#0F172A"/>
<path d="M97.2918 12.2899C96.3123 12.2899 95.4999 12.6124 94.8547 13.2573C94.2337 13.9023 93.9231 14.9055 93.9231 16.2671V25.4397H88.5471V0H93.9231V9.53094H93.9947C94.4725 8.83822 95.0698 8.28881 95.7865 7.88273C96.5272 7.47665 97.3754 7.27362 98.331 7.27362C99.2628 7.27362 100.183 7.44082 101.091 7.77524C102.022 8.10966 102.847 8.63517 103.563 9.35178C104.304 10.0684 104.901 11 105.355 12.1466C105.809 13.2693 106.036 14.6428 106.036 16.2671V25.4397H100.661V16.2671C100.661 14.8578 100.35 13.8426 99.7288 13.2215C99.1075 12.6004 98.2952 12.2899 97.2918 12.2899Z" fill="#0F172A"/>
<path d="M127.81 25.4397H122.865V22.6807H122.793C122.363 23.6602 121.67 24.4484 120.714 25.0456C119.759 25.6188 118.624 25.9056 117.31 25.9056C116.378 25.9056 115.41 25.7265 114.407 25.368C113.403 25.0098 112.483 24.4604 111.647 23.7199C110.835 22.9556 110.154 21.9881 109.605 20.8177C109.079 19.6471 108.816 18.2378 108.816 16.5896C108.816 15.2519 109.043 14.0098 109.497 12.8632C109.975 11.7166 110.632 10.7373 111.468 9.92511C112.328 9.08906 113.332 8.44412 114.479 7.99026C115.649 7.51253 116.939 7.27365 118.349 7.27365C119.735 7.27365 121.013 7.50057 122.184 7.95443C123.355 8.38439 124.346 9.01741 125.158 9.85345C125.995 10.6656 126.64 11.6569 127.094 12.8274C127.571 13.9979 127.81 15.3116 127.81 16.7687V25.4397ZM118.349 20.8893C119.568 20.8893 120.547 20.4952 121.288 19.7068C122.052 18.9186 122.435 17.8796 122.435 16.5896C122.435 15.2997 122.052 14.2606 121.288 13.4723C120.547 12.6841 119.568 12.2899 118.349 12.2899C117.13 12.2899 116.139 12.6841 115.374 13.4723C114.634 14.2606 114.263 15.2997 114.263 16.5896C114.263 17.8796 114.634 18.9186 115.374 19.7068C116.139 20.4952 117.13 20.8893 118.349 20.8893Z" fill="#0F172A"/>
<path d="M131.302 16.7687C131.302 15.3116 131.529 13.9979 131.983 12.8274C132.461 11.6569 133.106 10.6656 133.918 9.85345C134.754 9.01741 135.746 8.38439 136.893 7.95443C138.063 7.50057 139.353 7.27365 140.763 7.27365C142.149 7.27365 143.427 7.51253 144.598 7.99026C145.768 8.44412 146.772 9.08906 147.608 9.92511C148.468 10.7373 149.125 11.7166 149.579 12.8632C150.057 14.0098 150.296 15.2519 150.296 16.5896C150.296 18.2378 150.021 19.6471 149.472 20.8177C148.946 21.9881 148.265 22.9556 147.429 23.7199C146.617 24.4604 145.709 25.0098 144.705 25.368C143.702 25.7265 142.734 25.9056 141.802 25.9056C140.656 25.9056 139.652 25.7026 138.792 25.2964C137.932 24.8664 137.251 24.3051 136.749 23.6124H136.678V33H131.302V16.7687ZM140.763 12.2899C139.545 12.2899 138.553 12.6841 137.789 13.4723C137.048 14.2606 136.678 15.2997 136.678 16.5896C136.678 17.8796 137.048 18.9186 137.789 19.7068C138.553 20.4952 139.545 20.8893 140.763 20.8893C141.982 20.8893 142.961 20.4952 143.702 19.7068C144.466 18.9186 144.849 17.8796 144.849 16.5896C144.849 15.2997 144.466 14.2606 143.702 13.4723C142.961 12.6841 141.982 12.2899 140.763 12.2899Z" fill="#0F172A"/>
<path d="M157.945 18.0945V18.1662C158.184 19.1455 158.65 19.886 159.342 20.3877C160.035 20.8654 160.884 21.1043 161.887 21.1043C162.652 21.1043 163.32 21.0087 163.894 20.8177C164.467 20.6266 164.921 20.2922 165.256 19.8143H170.81C170.237 21.6537 169.163 23.1347 167.585 24.2574C166.008 25.3561 164.109 25.9056 161.887 25.9056C160.477 25.9056 159.187 25.6786 158.016 25.2247C156.87 24.747 155.866 24.1021 155.006 23.29C154.17 22.4538 153.513 21.4626 153.035 20.3161C152.581 19.1694 152.354 17.9273 152.354 16.5896C152.354 15.2519 152.581 14.0098 153.035 12.8632C153.513 11.7166 154.17 10.7373 155.006 9.92511C155.866 9.08906 156.87 8.44412 158.016 7.99026C159.187 7.51253 160.477 7.27365 161.887 7.27365C163.273 7.27365 164.539 7.51253 165.686 7.99026C166.856 8.44412 167.859 9.08906 168.696 9.92511C169.532 10.7373 170.177 11.7166 170.631 12.8632C171.085 14.0098 171.313 15.2519 171.313 16.5896V18.0945H157.945ZM161.887 12.0749C160.955 12.0749 160.155 12.2899 159.486 12.7199C158.817 13.1499 158.339 13.7829 158.052 14.6189V14.6906H165.793V14.6189C165.482 13.7829 164.981 13.1499 164.288 12.7199C163.619 12.2899 162.819 12.0749 161.887 12.0749Z" fill="#0F172A"/>
</g>
<defs>
<clipPath id="clip0_1_17">
<rect width="163.625" height="33" fill="white" transform="translate(7.6875)"/>
</clipPath>
</defs>
</svg>
