<svg width="68" height="22" viewBox="0 0 68 22" fill="none" xmlns="http://www.w3.org/2000/svg">
<path d="M12.4191 8.30963C11.1203 7.48794 9.74197 7.09035 8.19137 7.09035C6.86606 7.09035 6.19016 7.63373 6.19016 8.38915C6.19016 9.09156 6.89257 9.40963 8.05884 9.68794C12.9094 10.841 14.46 12.259 14.46 14.9626C14.46 18.0108 11.7034 20.3566 7.40944 20.3566C3.96366 20.3566 1.11426 19.1506 1.11426 17.3349C1.11426 16.0626 1.81667 15.3602 2.58534 15.0157C3.11546 15.5723 5.26245 16.6458 7.51546 16.6458C8.78775 16.6458 9.60944 16.0891 9.60944 15.294C9.60944 14.5651 8.90703 14.1675 7.06486 13.7964C3.42028 13.041 1.39257 11.5434 1.39257 8.49517C1.39257 5.27469 4.04317 3.1012 7.91305 3.1012C11.3323 3.1012 13.7841 4.14818 13.7841 6.2024C13.7974 7.03734 13.2938 7.91204 12.4191 8.30963Z" fill="#6B8CFF"/>
<path d="M21.7493 20.2903C18.7011 20.2903 15.1758 18.3686 15.1758 13.6638C15.1758 8.95899 18.7011 6.91803 21.7493 6.91803C24.7975 6.91803 28.2963 8.97225 28.2963 13.6638C28.2963 18.3554 24.7975 20.2903 21.7493 20.2903ZM21.7228 16.5397C23.0216 16.5397 23.9758 15.665 23.9758 13.5843C23.9758 11.5301 23.0216 10.6554 21.7228 10.6554C20.4505 10.6554 19.4698 11.5301 19.4698 13.5843C19.4698 15.665 20.4505 16.5397 21.7228 16.5397Z" fill="#6B8CFF"/>
<path d="M31.4769 7.09034C33.0805 7.09034 33.5046 8.11082 33.5046 9.74094V13.8361C33.5046 15.3867 33.9552 16.4337 35.1613 16.4337C36.6323 16.4337 37.0167 14.9626 37.0167 12.9084V9.72769C37.0167 8.15058 37.3613 7.07709 39.1372 7.07709H39.2432C40.9926 7.07709 41.3372 7.75299 41.3372 9.39636V17.7723C41.3372 19.4687 40.9396 20.1181 39.2167 20.1181C37.5203 20.1181 37.0167 19.4687 37.0167 17.9446V17.6662C36.5661 18.9915 35.3203 20.2373 32.895 20.2373C30.8938 20.2373 29.1709 18.806 29.1709 15.3602V9.40962C29.1709 7.806 29.648 7.09034 31.2914 7.09034H31.4769Z" fill="#6B8CFF"/>
<path d="M45.0739 2.29279C46.6245 2.29279 47.2209 2.86267 47.2209 4.29399V18.1699C47.2209 19.5747 46.6245 20.1446 45.1269 20.1446H45.0209C43.4438 20.1446 42.9004 19.5747 42.9004 18.1699V4.29399C42.9004 2.86267 43.4968 2.29279 45.0209 2.29279C45.0209 2.29279 45.0739 2.29279 45.0739 2.29279Z" fill="#6B8CFF"/>
<path d="M51.1572 5.68557C49.8584 5.68557 48.8379 5.00966 48.8379 3.51207C48.8379 2.04099 49.8584 1.31207 51.1572 1.31207C52.456 1.31207 53.4764 2.04099 53.4764 3.51207C53.4764 5.00966 52.456 5.68557 51.1572 5.68557ZM51.1572 7.09039C52.7078 7.09039 53.3042 7.66027 53.3042 9.09159V18.1699C53.3042 19.5747 52.7078 20.1446 51.2102 20.1446H51.1042C49.5536 20.1446 49.0102 19.5747 49.0102 18.1699V9.09159C49.0102 7.66027 49.6066 7.09039 51.1042 7.09039H51.1572V7.09039Z" fill="#6B8CFF"/>
<path d="M61.6805 15.1614C60.4347 15.1614 59.2552 14.9626 58.46 14.5916C58.46 16.0229 60.0636 16.8181 61.9323 16.8181C63.4829 16.8181 64.3576 16.341 64.9275 15.7976C65.5504 16.0229 66.0805 16.8181 66.0805 17.6C66.0805 19.4554 63.4564 20.3566 61.3094 20.3566C57.3865 20.3566 54.5371 18.2626 54.5371 13.8096C54.5371 9.33011 57.413 6.95782 61.0841 6.95782C64.4371 6.95782 66.3058 8.98554 66.3058 11.3843C66.3058 13.9952 64.1853 15.1614 61.6805 15.1614ZM61.2299 12.8422C62.2239 12.8422 62.7805 12.3916 62.7805 11.6229C62.7805 10.894 62.0118 10.3241 60.8853 10.3241C59.8648 10.3241 58.8576 11.0795 58.7648 12.3518C59.1492 12.6434 60.3287 12.8422 61.2299 12.8422Z" fill="#6B8CFF"/>
</svg>
