<svg width="65" height="20" viewBox="0 0 65 20" fill="none" xmlns="http://www.w3.org/2000/svg">
<g clip-path="url(#clip0_37_62)">
<path fill-rule="evenodd" clip-rule="evenodd" d="M6.56681 6.38554C7.04589 6.53012 7.57864 6.71486 8.16514 6.93976C8.75157 7.16464 9.29679 7.46186 9.80064 7.83136C10.3045 8.20079 10.7299 8.65864 11.0769 9.20479C11.4238 9.751 11.5972 10.4257 11.5972 11.2289C11.5972 11.8876 11.4691 12.4899 11.2131 13.0361C10.9571 13.5824 10.606 14.0482 10.1599 14.4337C9.71386 14.8193 9.177 15.1205 8.54921 15.3374C7.9215 15.5542 7.23586 15.6626 6.49246 15.6626C5.60036 15.6626 4.83218 15.5141 4.18789 15.2169C3.54359 14.9196 3.00669 14.5381 2.57716 14.0723V14.8916C2.57716 15.245 2.39544 15.4217 2.03199 15.4217H0.520388C0.173461 15.4217 0 15.245 0 14.8916V10.8916C0 10.5542 0.173461 10.3856 0.520388 10.3856H2.35414C2.5689 10.3856 2.71759 10.4297 2.80019 10.5181C2.88279 10.6064 2.95712 10.7309 3.02321 10.8916C3.25449 11.502 3.6551 11.9839 4.22506 12.3374C4.79501 12.6908 5.45168 12.8675 6.1951 12.8675C6.85591 12.8675 7.37214 12.7309 7.74386 12.4579C8.11564 12.1847 8.30143 11.8153 8.30143 11.3494C8.30143 11.0281 8.21057 10.755 8.02886 10.5301C7.84707 10.3052 7.6035 10.1044 7.29786 9.92771C6.9922 9.751 6.62876 9.58636 6.20749 9.43371C5.78622 9.28114 5.32779 9.1325 4.83218 8.98793C3.49403 8.55421 2.40783 7.96786 1.57356 7.22893C0.739271 6.48996 0.322145 5.51004 0.322145 4.28916C0.322145 3.63052 0.441916 3.03615 0.681461 2.50602C0.921007 1.9759 1.25141 1.52611 1.67267 1.15663C2.09394 0.78715 2.58955 0.502009 3.1595 0.301205C3.72946 0.100401 4.34482 0 5.00564 0C5.79861 0 6.4842 0.132529 7.06241 0.39759C7.64057 0.662652 8.13621 1.01204 8.54921 1.44579V0.771086C8.54921 0.417669 8.73093 0.240964 9.09443 0.240964H10.606C10.9695 0.240964 11.1512 0.417669 11.1512 0.771086V4.57831C11.1512 4.93173 10.9695 5.10844 10.606 5.10844H8.82179C8.62357 5.10844 8.47493 5.06426 8.37579 4.97591C8.27664 4.88755 8.20229 4.75502 8.15271 4.57831C7.971 4.01606 7.653 3.5743 7.19871 3.25301C6.74439 2.93173 6.18684 2.77109 5.52603 2.77109C4.94781 2.77109 4.48939 2.90763 4.15071 3.18072C3.81205 3.45381 3.64271 3.80723 3.64271 4.24096C3.64271 4.54619 3.72531 4.81124 3.89052 5.03614C4.05573 5.26104 4.27461 5.45381 4.54721 5.61446C4.81979 5.7751 5.13367 5.91566 5.48886 6.03614C5.84404 6.15663 6.20336 6.27309 6.56681 6.38554ZM19.085 5.30121C19.7624 5.30121 20.386 5.4257 20.9559 5.6747C21.5259 5.92369 22.0133 6.27309 22.418 6.72289C22.8227 7.17271 23.1366 7.71486 23.3596 8.34943C23.5826 8.98393 23.6941 9.69479 23.6941 10.4819C23.6941 11.253 23.5826 11.9558 23.3596 12.5904C23.1366 13.2249 22.8269 13.7711 22.4304 14.2289C22.0339 14.6867 21.5548 15.0401 20.9931 15.2891C20.4314 15.5381 19.8119 15.6626 19.1346 15.6626C18.259 15.6626 17.4496 15.4217 16.7061 14.9398V17.5421C16.7061 17.8153 16.8466 17.9518 17.1274 17.9518H18.4159C18.7299 17.9518 18.8868 18.1044 18.8868 18.4096V19.5421C18.8868 19.8474 18.7299 20 18.4159 20H12.6421C12.3283 20 12.1714 19.8474 12.1714 19.5421V18.4096C12.1714 18.1044 12.3283 17.9518 12.6421 17.9518H13.0882C13.3691 17.9518 13.5094 17.8153 13.5094 17.5421V8.19279C13.5094 7.90364 13.3691 7.75907 13.0882 7.75907H12.5926C12.2787 7.75907 12.1217 7.61443 12.1217 7.32529V6C12.1217 5.69478 12.2787 5.54217 12.5926 5.54217H14.1538C14.6824 5.54217 15.0913 5.61044 15.3804 5.74699C15.6695 5.88354 15.8719 6.12048 15.9875 6.45783C16.3674 6.13654 16.8094 5.86346 17.3133 5.63856C17.8171 5.41365 18.4077 5.30121 19.085 5.30121ZM18.1929 13.0844C18.8868 13.0844 19.4443 12.8434 19.8656 12.3614C20.2869 11.8795 20.4975 11.253 20.4975 10.4819C20.4975 9.69479 20.2951 9.06429 19.8904 8.59036C19.4856 8.11643 18.9364 7.8795 18.2425 7.8795C17.8295 7.8795 17.4248 7.97593 17.0283 8.16864C16.7805 8.29721 16.6566 8.47393 16.6566 8.69879V12.241C16.6566 12.3695 16.6813 12.4739 16.7309 12.5542C16.7805 12.6346 16.8796 12.7149 17.0283 12.7952C17.4082 12.9879 17.7964 13.0844 18.1929 13.0844ZM29.6209 15.6626C28.8609 15.6626 28.167 15.5381 27.5393 15.2891C26.9115 15.0401 26.3705 14.6867 25.9161 14.2289C25.4619 13.7711 25.1108 13.2249 24.863 12.5904C24.6152 11.9558 24.4913 11.253 24.4913 10.4819C24.4913 9.71086 24.611 9.008 24.8506 8.3735C25.0901 7.73893 25.4329 7.19279 25.8789 6.73494C26.3251 6.27711 26.862 5.92369 27.4897 5.6747C28.1175 5.4257 28.8114 5.30121 29.5712 5.30121C30.3147 5.30121 30.9961 5.4257 31.6156 5.6747C32.2351 5.92369 32.7639 6.28112 33.2016 6.74699C33.6394 7.21286 33.9821 7.76707 34.23 8.40964C34.4778 9.05221 34.6016 9.77507 34.6016 10.5783V10.6747C34.6016 10.9639 34.453 11.1084 34.1556 11.1084H27.9853C27.7871 11.1084 27.688 11.2209 27.688 11.4458C27.721 12.0562 27.9275 12.5301 28.3075 12.8675C28.6874 13.2048 29.1417 13.3735 29.6704 13.3735C30.0669 13.3735 30.4096 13.2972 30.6988 13.1446C30.9879 12.992 31.1985 12.7791 31.3306 12.506C31.4133 12.3614 31.4835 12.253 31.5414 12.1807C31.5991 12.1084 31.7106 12.0723 31.8759 12.0723H33.9821C34.1143 12.0723 34.2176 12.1044 34.2919 12.1686C34.3663 12.2329 34.3869 12.3293 34.3539 12.4579C34.1061 13.4217 33.5485 14.1968 32.6812 14.7831C31.8139 15.3695 30.7938 15.6626 29.6209 15.6626ZM31.0829 9.39757C31.2646 9.39757 31.3472 9.30921 31.3306 9.1325C31.1985 8.57029 30.9714 8.17671 30.6492 7.95179C30.3271 7.72693 29.9595 7.61443 29.5465 7.61443C29.1335 7.61443 28.7576 7.72693 28.419 7.95179C28.0803 8.17671 27.8531 8.57029 27.7375 9.1325C27.688 9.30921 27.7705 9.39757 27.9853 9.39757H31.0829ZM44.8649 11.5421C45.1623 11.5421 45.2861 11.6707 45.2366 11.9277C45.121 12.5221 44.9186 13.0522 44.6295 13.5181C44.3404 13.9839 43.9852 14.3775 43.5639 14.6988C43.1426 15.0201 42.6677 15.2611 42.1391 15.4217C41.6104 15.5824 41.0487 15.6626 40.454 15.6626C39.7106 15.6626 39.025 15.5381 38.3972 15.2891C37.7694 15.0401 37.2284 14.6908 36.7741 14.2409C36.3198 13.7911 35.9646 13.245 35.7086 12.6024C35.4524 11.9599 35.3245 11.253 35.3245 10.4819C35.3245 9.71086 35.4442 9.004 35.6838 8.36143C35.9234 7.71886 36.2536 7.17271 36.6749 6.72289C37.0962 6.27309 37.6001 5.92369 38.1866 5.6747C38.7731 5.4257 39.4132 5.30121 40.1071 5.30121C40.7018 5.30121 41.2552 5.42169 41.7674 5.66265C42.2795 5.90361 42.709 6.23293 43.0559 6.6506V6C43.0559 5.69478 43.2129 5.54217 43.5267 5.54217H44.7162C45.0136 5.54217 45.1623 5.69478 45.1623 6V9.15664C45.1623 9.46186 45.0136 9.61443 44.7162 9.61443H42.8577C42.6925 9.61443 42.5727 9.58236 42.4984 9.51807C42.4241 9.45379 42.3621 9.34136 42.3126 9.18071C42.1804 8.82729 41.9656 8.54214 41.6683 8.32529C41.3709 8.10843 41.0156 8 40.6027 8C39.9584 8 39.4504 8.22493 39.0786 8.67471C38.707 9.1245 38.5211 9.73493 38.5211 10.506C38.5211 11.245 38.707 11.8394 39.0786 12.2891C39.4504 12.7389 39.9666 12.9639 40.6274 12.9639C41.47 12.9639 42.0482 12.6346 42.3621 11.9759C42.4447 11.8314 42.5149 11.7229 42.5727 11.6506C42.6306 11.5783 42.7337 11.5421 42.8824 11.5421H44.8649ZM57.0857 13.3735C57.3996 13.3735 57.5566 13.5261 57.5566 13.8314V14.9639C57.5566 15.2691 57.3996 15.4217 57.0857 15.4217H55.3016C54.8225 15.4217 54.4631 15.3133 54.2236 15.0964C53.9841 14.8795 53.7486 14.5783 53.5174 14.1928L52.0801 11.7591C51.9479 11.5341 51.8199 11.3936 51.696 11.3374C51.5721 11.2811 51.411 11.253 51.2128 11.253H50.7667C50.5685 11.253 50.4694 11.3494 50.4694 11.5421V12.9639C50.4694 13.2369 50.6181 13.3735 50.9154 13.3735H51.3367C51.6506 13.3735 51.8075 13.5261 51.8075 13.8314V14.9639C51.8075 15.2691 51.6506 15.4217 51.3367 15.4217H46.4054C46.0915 15.4217 45.9346 15.2691 45.9346 14.9639V13.8314C45.9346 13.5261 46.0915 13.3735 46.4054 13.3735H46.8515C47.1323 13.3735 47.2727 13.2369 47.2727 12.9639V2.89156C47.2727 2.60241 47.1323 2.45783 46.8515 2.45783H46.3559C46.0419 2.45783 45.885 2.31326 45.885 2.02409V0.698795C45.885 0.393573 46.0419 0.240964 46.3559 0.240964H48.5117C49.2551 0.240964 49.7673 0.377509 50.0481 0.650602C50.329 0.923693 50.4694 1.42169 50.4694 2.14458V8.89157C50.4694 9.08436 50.5685 9.18071 50.7667 9.18071H51.411C51.758 9.18071 51.9934 9.15264 52.1173 9.09636C52.2412 9.04014 52.3775 8.92371 52.5261 8.747L53.1456 7.92771C53.3109 7.70279 53.2449 7.59036 52.9474 7.59036H52.5014C52.1875 7.59036 52.0306 7.43779 52.0306 7.13253V6C52.0306 5.69478 52.1875 5.54217 52.5014 5.54217H57.0114C57.3253 5.54217 57.4822 5.69478 57.4822 6V7.15664C57.4822 7.46186 57.3253 7.61443 57.0114 7.61443H56.5406C56.3919 7.61443 56.2886 7.63857 56.2309 7.68671C56.173 7.73493 56.1028 7.83136 56.0202 7.97593L54.8803 9.56629C54.7812 9.69479 54.6861 9.81121 54.5953 9.91564C54.5044 10.0201 54.3929 10.1124 54.2608 10.1928C54.4095 10.2731 54.5334 10.3815 54.6325 10.5181C54.7316 10.6546 54.8473 10.8354 54.9794 11.0602L56.1194 12.9398C56.2184 13.1004 56.3051 13.2129 56.3795 13.2771C56.4539 13.3414 56.5736 13.3735 56.7389 13.3735H57.0857Z" fill="black"/>
<path fill-rule="evenodd" clip-rule="evenodd" d="M62.1664 15.5002C61.4484 15.5002 60.8433 15.2556 60.3509 14.7666C59.8585 14.2776 59.6123 13.6838 59.6123 12.9852C59.6123 12.2865 59.8585 11.6978 60.3509 11.2187C60.8433 10.7397 61.4484 10.5002 62.1664 10.5002C62.8845 10.5002 63.4948 10.7397 63.9974 11.2187C64.5 11.6978 64.7513 12.2865 64.7513 12.9852C64.7513 13.6838 64.5 14.2776 63.9974 14.7666C63.4948 15.2556 62.8845 15.5002 62.1664 15.5002Z" fill="black"/>
</g>
<defs>
<clipPath id="clip0_37_62">
<rect width="65" height="20" fill="white"/>
</clipPath>
</defs>
</svg>
