<svg width="170" height="35" viewBox="0 0 170 35" fill="none" xmlns="http://www.w3.org/2000/svg">
<g clip-path="url(#clip0_16_64)">
<path d="M32.113 20.9034C31.4104 20.5004 30.8537 19.9436 30.4454 19.2357C30.037 18.5277 29.8354 17.7455 29.8354 16.8918C29.8354 16.038 30.0397 15.2532 30.4454 14.5452C30.8537 13.8373 31.4077 13.2831 32.113 12.8774C32.8157 12.4744 33.5846 12.2729 34.4145 12.2729C35.0641 12.2729 35.6767 12.3869 36.2467 12.6176C36.8195 12.8483 37.2888 13.1718 37.66 13.5933L36.9069 14.3464C36.6258 14.0017 36.2679 13.7339 35.8278 13.5509C35.3876 13.3653 34.9157 13.2725 34.4145 13.2725C33.7967 13.2725 33.2187 13.4236 32.6805 13.7233C32.1422 14.0229 31.71 14.4471 31.3839 14.996C31.0577 15.5422 30.896 16.1759 30.896 16.8918C30.896 17.6077 31.0577 18.2387 31.3839 18.7849C31.71 19.3338 32.1422 19.7553 32.6805 20.0576C33.2187 20.3572 33.7967 20.5084 34.4145 20.5084C35.0323 20.5084 35.5016 20.4156 35.902 20.23C36.2997 20.0444 36.6497 19.8004 36.944 19.4955C37.1588 19.2648 37.3311 18.9864 37.4637 18.6576C37.5963 18.3289 37.6732 17.9709 37.697 17.5838H34.4384V16.6081H38.686C38.7258 16.8387 38.747 17.0535 38.747 17.2497C38.747 17.7933 38.6595 18.3209 38.4872 18.8353C38.3148 19.3497 38.0392 19.8004 37.66 20.1875C36.8274 21.0678 35.7456 21.508 34.4119 21.508C33.5794 21.508 32.8131 21.3065 32.1104 20.9034H32.113Z" fill="white"/>
<path d="M41.0565 21.0837C40.5792 20.8 40.2053 20.4103 39.9401 19.9118C39.6723 19.4133 39.5398 18.8618 39.5398 18.252C39.5398 17.6421 39.6723 17.0906 39.9401 16.5922C40.2079 16.0937 40.5792 15.7039 41.0565 15.4202C41.5338 15.1365 42.0719 14.9933 42.6738 14.9933C43.2757 14.9933 43.8166 15.1365 44.2965 15.4202C44.7791 15.7039 45.153 16.0963 45.4208 16.5922C45.6886 17.0906 45.8211 17.6421 45.8211 18.252C45.8211 18.8618 45.6886 19.4133 45.4208 19.9118C45.153 20.4103 44.7791 20.8 44.2965 21.0837C43.8139 21.3674 43.273 21.5106 42.6738 21.5106C42.0745 21.5106 41.5338 21.3674 41.0565 21.0837ZM43.7105 20.275C44.0314 20.0868 44.2886 19.8163 44.4822 19.4663C44.6757 19.1163 44.7711 18.7107 44.7711 18.252C44.7711 17.7933 44.6731 17.3849 44.4822 17.0349C44.2886 16.685 44.0314 16.4145 43.7105 16.2262C43.3897 16.038 43.045 15.9425 42.6738 15.9425C42.3026 15.9425 41.9712 16.038 41.6504 16.2262C41.3295 16.4145 41.0723 16.685 40.8787 17.0349C40.6852 17.3849 40.5898 17.7906 40.5898 18.252C40.5898 18.7133 40.6852 19.119 40.8787 19.4663C41.0723 19.8163 41.3295 20.0868 41.6504 20.275C41.9712 20.4633 42.3132 20.5587 42.6738 20.5587C43.0344 20.5587 43.3897 20.4633 43.7105 20.275Z" fill="white"/>
<path d="M48.0565 21.0837C47.5792 20.8 47.2054 20.4103 46.9402 19.9118C46.6724 19.4133 46.5398 18.8618 46.5398 18.252C46.5398 17.6421 46.6724 17.0906 46.9402 16.5922C47.208 16.0937 47.5792 15.7039 48.0565 15.4202C48.5338 15.1365 49.072 14.9933 49.6739 14.9933C50.2758 14.9933 50.8166 15.1365 51.2965 15.4202C51.7791 15.7039 52.153 16.0963 52.4208 16.5922C52.6886 17.0906 52.8211 17.6421 52.8211 18.252C52.8211 18.8618 52.6886 19.4133 52.4208 19.9118C52.153 20.4103 51.7791 20.8 51.2965 21.0837C50.8139 21.3674 50.2731 21.5106 49.6739 21.5106C49.0747 21.5106 48.5338 21.3674 48.0565 21.0837ZM50.7105 20.275C51.0314 20.0868 51.2886 19.8163 51.4822 19.4663C51.6757 19.1163 51.7711 18.7107 51.7711 18.252C51.7711 17.7933 51.6731 17.3849 51.4822 17.0349C51.2886 16.685 51.0314 16.4145 50.7105 16.2262C50.3897 16.038 50.0451 15.9425 49.6739 15.9425C49.3027 15.9425 48.9712 16.038 48.6504 16.2262C48.3295 16.4145 48.0724 16.685 47.8789 17.0349C47.6853 17.3849 47.5898 17.7906 47.5898 18.252C47.5898 18.7133 47.6853 19.119 47.8789 19.4663C48.0724 19.8163 48.3295 20.0868 48.6504 20.275C48.9712 20.4633 49.3133 20.5587 49.6739 20.5587C50.0345 20.5587 50.3897 20.4633 50.7105 20.275Z" fill="white"/>
<path d="M54.7592 23.645C54.2898 23.2924 53.9744 22.8788 53.8073 22.4095L54.783 22.0011C54.9076 22.3617 55.1277 22.6561 55.4433 22.8841C55.7588 23.1095 56.1352 23.2235 56.5727 23.2235C57.2223 23.2235 57.7235 23.0352 58.0735 22.6587C58.4235 22.2822 58.5985 21.7545 58.5985 21.0758V20.4209H58.5481C58.3519 20.7337 58.0656 20.9936 57.697 21.1977C57.3284 21.4019 56.9069 21.5053 56.4376 21.5053C55.9179 21.5053 55.4379 21.3648 54.9925 21.0837C54.547 20.8027 54.1944 20.4129 53.9319 19.9197C53.6694 19.4239 53.5369 18.8671 53.5369 18.2467C53.5369 17.6262 53.6694 17.0694 53.9319 16.5736C54.1944 16.0778 54.5497 15.6906 54.9925 15.4096C55.4379 15.1285 55.9179 14.988 56.4376 14.988C56.9069 14.988 57.3258 15.0914 57.697 15.2956C58.0682 15.5024 58.3519 15.7622 58.5481 16.0725H58.5985V15.1842H59.5981V21.0599C59.5981 21.7333 59.4656 22.3061 59.2031 22.7754C58.9406 23.2447 58.5799 23.5947 58.1238 23.8253C57.6678 24.056 57.1508 24.17 56.5754 24.17C55.8357 24.17 55.2312 23.9924 54.7619 23.6397L54.7592 23.645ZM57.5989 20.2803C57.9038 20.0947 58.1477 19.8269 58.3333 19.4796C58.5189 19.1322 58.6118 18.7239 58.6118 18.252C58.6118 17.78 58.5189 17.369 58.3333 17.0164C58.1477 16.6637 57.9038 16.3986 57.5989 16.2156C57.2939 16.0327 56.9599 15.9425 56.5993 15.9425C56.2387 15.9425 55.9046 16.0353 55.5996 16.2209C55.2947 16.4065 55.0508 16.6743 54.8652 17.0217C54.6796 17.369 54.5868 17.78 54.5868 18.252C54.5868 18.7239 54.6796 19.1322 54.8652 19.4796C55.0508 19.8269 55.2947 20.0947 55.5996 20.2803C55.9046 20.4659 56.236 20.5587 56.5993 20.5587C56.9625 20.5587 57.2939 20.4659 57.5989 20.2803Z" fill="white"/>
<path d="M60.8577 12.4718H61.9076V21.3118H60.8577V12.4718V12.4718Z" fill="white"/>
<path d="M64.3577 21.089C63.8937 20.808 63.5277 20.4209 63.2652 19.9277C63.0028 19.4345 62.8701 18.8751 62.8701 18.2493C62.8701 17.658 62.9922 17.1118 63.2414 16.6134C63.488 16.1149 63.8407 15.7198 64.2967 15.4282C64.7528 15.1365 65.2777 14.9907 65.8717 14.9907C66.4656 14.9907 66.9853 15.1259 67.4334 15.391C67.8815 15.6588 68.2261 16.0353 68.4647 16.5206C68.7034 17.0058 68.8227 17.5652 68.8227 18.1989C68.8227 18.3156 68.8148 18.3978 68.7989 18.4455H63.936C63.9519 18.9069 64.0633 19.294 64.2702 19.6122C64.477 19.9303 64.7342 20.1663 65.0418 20.3228C65.3494 20.4792 65.6701 20.5561 65.9989 20.5561C66.7732 20.5561 67.3697 20.1769 67.7887 19.4213L68.714 19.8667C68.4515 20.3599 68.0857 20.7576 67.6217 21.0572C67.1576 21.3568 66.5982 21.508 65.9486 21.508C65.3573 21.508 64.827 21.3674 64.363 21.089H64.3577ZM67.709 17.5705C67.6931 17.324 67.6217 17.0774 67.4997 16.8308C67.3777 16.5842 67.1761 16.3747 66.9004 16.1997C66.6246 16.0274 66.272 15.9399 65.8451 15.9399C65.3838 15.9399 64.986 16.0884 64.6467 16.3853C64.3073 16.6823 64.0952 17.0774 64.005 17.5705H67.709V17.5705Z" fill="white"/>
<path d="M72.8318 12.4718H75.5098C76.4139 12.4718 77.2041 12.66 77.8802 13.0339C78.5537 13.4077 79.0734 13.9301 79.4366 14.5956C79.7999 15.2638 79.9801 16.0274 79.9801 16.8918C79.9801 17.7561 79.7999 18.5198 79.4366 19.1879C79.0734 19.8535 78.5563 20.3758 77.8802 20.7496C77.2067 21.1235 76.4166 21.3118 75.5098 21.3118H72.8318V12.4718V12.4718ZM75.5098 20.3095C76.5545 20.3095 77.3817 20.0099 77.9915 19.408C78.6014 18.8088 78.9063 17.9683 78.9063 16.8891C78.9063 15.81 78.6014 14.9721 77.9915 14.3702C77.3817 13.7683 76.5545 13.4687 75.5098 13.4687H73.879V20.3069H75.5098V20.3095Z" fill="white"/>
<path d="M82.3558 21.089C81.8918 20.808 81.5259 20.4209 81.2634 19.9277C81.0009 19.4345 80.8684 18.8751 80.8684 18.2493C80.8684 17.658 80.9903 17.1118 81.2396 16.6134C81.4862 16.1149 81.8388 15.7198 82.2949 15.4282C82.7509 15.1365 83.2759 14.9907 83.8698 14.9907C84.4637 14.9907 84.9835 15.1259 85.4316 15.391C85.8797 15.6588 86.2244 16.0353 86.463 16.5206C86.7017 17.0058 86.8209 17.5652 86.8209 18.1989C86.8209 18.3156 86.813 18.3978 86.797 18.4455H81.9343C81.9502 18.9069 82.0615 19.294 82.2683 19.6122C82.4751 19.9303 82.7324 20.1663 83.0399 20.3228C83.3475 20.4792 83.6683 20.5561 83.9971 20.5561C84.7713 20.5561 85.3679 20.1769 85.7868 19.4213L86.7122 19.8667C86.4498 20.3599 86.0838 20.7576 85.6198 21.0572C85.1558 21.3568 84.5963 21.508 83.9467 21.508C83.3554 21.508 82.8252 21.3674 82.3612 21.089H82.3558ZM85.7073 17.5705C85.6914 17.324 85.6198 17.0774 85.4979 16.8308C85.3759 16.5842 85.1743 16.3747 84.8986 16.1997C84.6228 16.0274 84.2702 15.9399 83.8433 15.9399C83.3819 15.9399 82.9842 16.0884 82.6448 16.3853C82.3054 16.6823 82.0933 17.0774 82.0032 17.5705H85.7073V17.5705Z" fill="white"/>
<path d="M87.0647 15.1869H88.1996L90.0769 20.0762H90.1007L92.0018 15.1869H93.1127L90.6071 21.3091H89.5466L87.0647 15.1869Z" fill="white"/>
<path d="M95.0324 21.089C94.5684 20.808 94.2024 20.4209 93.9399 19.9277C93.6774 19.4345 93.5449 18.8751 93.5449 18.2493C93.5449 17.658 93.6669 17.1118 93.9161 16.6134C94.1627 16.1149 94.5153 15.7198 94.9714 15.4282C95.4274 15.1365 95.9524 14.9907 96.5463 14.9907C97.1403 14.9907 97.66 15.1259 98.1081 15.391C98.5562 15.6588 98.9008 16.0353 99.1394 16.5206C99.378 17.0058 99.4974 17.5652 99.4974 18.1989C99.4974 18.3156 99.4895 18.3978 99.4736 18.4455H94.6108C94.6267 18.9069 94.738 19.294 94.9448 19.6122C95.1517 19.9303 95.4089 20.1663 95.7165 20.3228C96.024 20.4792 96.3448 20.5561 96.6736 20.5561C97.4478 20.5561 98.0444 20.1769 98.4633 19.4213L99.3888 19.8667C99.1263 20.3599 98.7603 20.7576 98.2963 21.0572C97.8323 21.3568 97.2728 21.508 96.6232 21.508C96.032 21.508 95.5017 21.3674 95.0377 21.089H95.0324ZM98.3838 17.5705C98.3679 17.324 98.2963 17.0774 98.1744 16.8308C98.0524 16.5842 97.8508 16.3747 97.5751 16.1997C97.2993 16.0274 96.9467 15.9399 96.5198 15.9399C96.0584 15.9399 95.6607 16.0884 95.3213 16.3853C94.9819 16.6823 94.7698 17.0774 94.6797 17.5705H98.3838V17.5705Z" fill="white"/>
<path d="M100.558 12.4718H101.608V21.3118H100.558V12.4718V12.4718Z" fill="white"/>
<path d="M104.124 21.0837C103.647 20.8 103.273 20.4103 103.008 19.9118C102.74 19.4133 102.608 18.8618 102.608 18.252C102.608 17.6421 102.74 17.0906 103.008 16.5922C103.276 16.0937 103.647 15.7039 104.124 15.4202C104.602 15.1365 105.14 14.9933 105.742 14.9933C106.344 14.9933 106.884 15.1365 107.364 15.4202C107.847 15.7039 108.221 16.0963 108.489 16.5922C108.756 17.0906 108.889 17.6421 108.889 18.252C108.889 18.8618 108.756 19.4133 108.489 19.9118C108.221 20.4103 107.847 20.8 107.364 21.0837C106.882 21.3674 106.341 21.5106 105.742 21.5106C105.143 21.5106 104.602 21.3674 104.124 21.0837ZM106.778 20.275C107.099 20.0868 107.356 19.8163 107.55 19.4663C107.744 19.1163 107.839 18.7107 107.839 18.252C107.839 17.7933 107.741 17.3849 107.55 17.0349C107.356 16.685 107.099 16.4145 106.778 16.2262C106.458 16.038 106.113 15.9425 105.742 15.9425C105.371 15.9425 105.039 16.038 104.718 16.2262C104.397 16.4145 104.14 16.685 103.947 17.0349C103.753 17.3849 103.658 17.7906 103.658 18.252C103.658 18.7133 103.753 19.119 103.947 19.4663C104.14 19.8163 104.397 20.0868 104.718 20.275C105.039 20.4633 105.381 20.5587 105.742 20.5587C106.102 20.5587 106.458 20.4633 106.778 20.275Z" fill="white"/>
<path d="M109.841 15.1869H110.84V16.0884H110.891C111.087 15.7755 111.373 15.513 111.742 15.3035C112.11 15.0941 112.54 14.988 113.025 14.988C113.553 14.988 114.038 15.1312 114.481 15.4149C114.926 15.6986 115.279 16.0884 115.542 16.5815C115.804 17.0747 115.937 17.6315 115.937 18.2493C115.937 18.8671 115.804 19.4213 115.542 19.9144C115.279 20.4076 114.924 20.7974 114.481 21.0811C114.035 21.3648 113.55 21.508 113.025 21.508C112.54 21.508 112.11 21.4046 111.734 21.1924C111.357 20.9803 111.076 20.7178 110.888 20.397H110.838L110.888 21.2481V23.9765H109.838V15.1869H109.841ZM113.871 20.2724C114.179 20.0841 114.425 19.8137 114.611 19.4637C114.796 19.1137 114.889 18.708 114.889 18.2493C114.889 17.7906 114.796 17.3823 114.611 17.0323C114.425 16.6823 114.179 16.4118 113.871 16.2236C113.563 16.0353 113.227 15.9399 112.866 15.9399C112.505 15.9399 112.169 16.0327 111.861 16.2183C111.554 16.4039 111.307 16.6717 111.122 17.0217C110.936 17.3717 110.843 17.78 110.843 18.2493C110.843 18.7186 110.936 19.1163 111.122 19.4716C111.307 19.8243 111.554 20.0947 111.861 20.2803C112.169 20.4659 112.505 20.5587 112.866 20.5587C113.227 20.5587 113.563 20.4633 113.871 20.275V20.2724Z" fill="white"/>
<path d="M118.389 21.089C117.925 20.808 117.559 20.4209 117.297 19.9277C117.034 19.4345 116.902 18.8751 116.902 18.2493C116.902 17.658 117.024 17.1118 117.273 16.6134C117.519 16.1149 117.872 15.7198 118.328 15.4282C118.784 15.1365 119.309 14.9907 119.903 14.9907C120.497 14.9907 121.017 15.1259 121.465 15.391C121.913 15.6588 122.258 16.0353 122.496 16.5206C122.735 17.0058 122.854 17.5652 122.854 18.1989C122.854 18.3156 122.846 18.3978 122.83 18.4455H117.968C117.983 18.9069 118.095 19.294 118.302 19.6122C118.508 19.9303 118.766 20.1663 119.073 20.3228C119.381 20.4792 119.702 20.5561 120.03 20.5561C120.805 20.5561 121.401 20.1769 121.82 19.4213L122.745 19.8667C122.483 20.3599 122.117 20.7576 121.653 21.0572C121.189 21.3568 120.63 21.508 119.98 21.508C119.389 21.508 118.858 21.3674 118.394 21.089H118.389ZM121.741 17.5705C121.725 17.324 121.653 17.0774 121.531 16.8308C121.409 16.5842 121.208 16.3747 120.932 16.1997C120.656 16.0274 120.303 15.9399 119.876 15.9399C119.415 15.9399 119.018 16.0884 118.678 16.3853C118.339 16.6823 118.127 17.0774 118.036 17.5705H121.741V17.5705Z" fill="white"/>
<path d="M123.912 15.1869H124.912V16.1865H124.962C125.076 15.8497 125.315 15.566 125.673 15.3354C126.031 15.1047 126.386 14.9907 126.741 14.9907C126.996 14.9907 127.234 15.0331 127.457 15.1153V16.2395C127.234 16.1149 126.948 16.0539 126.593 16.0539C126.304 16.0539 126.036 16.1387 125.784 16.3084C125.532 16.4781 125.333 16.7035 125.185 16.9819C125.036 17.263 124.962 17.5679 124.962 17.8967V21.3118H123.912V15.1895V15.1869Z" fill="white"/>
<path d="M132.855 20.9034C132.153 20.5004 131.596 19.9436 131.188 19.2357C130.779 18.5277 130.578 17.7455 130.578 16.8918C130.578 16.038 130.782 15.2532 131.188 14.5452C131.596 13.8373 132.15 13.2831 132.855 12.8774C133.558 12.4744 134.327 12.2729 135.157 12.2729C135.807 12.2729 136.419 12.3869 136.989 12.6176C137.562 12.8483 138.031 13.1718 138.402 13.5933L137.649 14.3464C137.368 14.0017 137.01 13.7339 136.57 13.5509C136.13 13.3653 135.658 13.2725 135.157 13.2725C134.539 13.2725 133.961 13.4236 133.423 13.7233C132.885 14.0229 132.452 14.4471 132.126 14.996C131.8 15.5422 131.638 16.1759 131.638 16.8918C131.638 17.6077 131.8 18.2387 132.126 18.7849C132.452 19.3338 132.885 19.7553 133.423 20.0576C133.961 20.3572 134.539 20.5084 135.157 20.5084C135.775 20.5084 136.244 20.4156 136.644 20.23C137.042 20.0444 137.392 19.8004 137.686 19.4955C137.901 19.2648 138.074 18.9864 138.206 18.6576C138.339 18.3289 138.416 17.9709 138.439 17.5838H135.181V16.6081H139.428C139.468 16.8387 139.489 17.0535 139.489 17.2497C139.489 17.7933 139.402 18.3209 139.23 18.8353C139.057 19.3497 138.781 19.8004 138.402 20.1875C137.57 21.0678 136.488 21.508 135.154 21.508C134.322 21.508 133.555 21.3065 132.853 20.9034H132.855Z" fill="white"/>
<path d="M140.688 15.1869H141.688V16.1865H141.738C141.852 15.8497 142.091 15.566 142.449 15.3354C142.807 15.1047 143.162 14.9907 143.517 14.9907C143.772 14.9907 144.01 15.0331 144.233 15.1153V16.2395C144.01 16.1149 143.724 16.0539 143.369 16.0539C143.08 16.0539 142.812 16.1387 142.56 16.3084C142.308 16.4781 142.109 16.7035 141.961 16.9819C141.812 17.263 141.738 17.5679 141.738 17.8967V21.3118H140.688V15.1895V15.1869Z" fill="white"/>
<path d="M145.887 21.0837C145.41 20.8 145.036 20.4103 144.771 19.9118C144.503 19.4133 144.371 18.8618 144.371 18.252C144.371 17.6421 144.503 17.0906 144.771 16.5922C145.039 16.0937 145.41 15.7039 145.887 15.4202C146.365 15.1365 146.903 14.9933 147.505 14.9933C148.107 14.9933 148.648 15.1365 149.128 15.4202C149.61 15.7039 149.984 16.0963 150.252 16.5922C150.52 17.0906 150.652 17.6421 150.652 18.252C150.652 18.8618 150.52 19.4133 150.252 19.9118C149.984 20.4103 149.61 20.8 149.128 21.0837C148.645 21.3674 148.104 21.5106 147.505 21.5106C146.906 21.5106 146.365 21.3674 145.887 21.0837ZM148.542 20.275C148.862 20.0868 149.12 19.8163 149.313 19.4663C149.507 19.1163 149.602 18.7107 149.602 18.252C149.602 17.7933 149.504 17.3849 149.313 17.0349C149.12 16.685 148.862 16.4145 148.542 16.2262C148.221 16.038 147.876 15.9425 147.505 15.9425C147.134 15.9425 146.802 16.038 146.481 16.2262C146.161 16.4145 145.903 16.685 145.71 17.0349C145.516 17.3849 145.421 17.7906 145.421 18.252C145.421 18.7133 145.516 19.119 145.71 19.4663C145.903 19.8163 146.161 20.0868 146.481 20.275C146.802 20.4633 147.144 20.5587 147.505 20.5587C147.865 20.5587 148.221 20.4633 148.542 20.275Z" fill="white"/>
<path d="M152.188 20.853C151.798 20.4182 151.602 19.8137 151.602 19.0394V15.1869H152.652V18.8671C152.652 19.994 153.158 20.5587 154.171 20.5587C154.508 20.5587 154.81 20.4633 155.078 20.275C155.345 20.0868 155.55 19.8402 155.695 19.5353C155.839 19.2303 155.91 18.9095 155.91 18.5728V15.1895H156.947V21.3117H155.961V20.397H155.91C155.73 20.7099 155.454 20.9724 155.088 21.1871C154.722 21.4019 154.33 21.508 153.908 21.508C153.15 21.508 152.577 21.2905 152.188 20.853Z" fill="white"/>
<path d="M158.318 15.1869H159.317V16.0884H159.368C159.564 15.7755 159.85 15.513 160.219 15.3035C160.587 15.0941 161.017 14.988 161.502 14.988C162.03 14.988 162.515 15.1312 162.958 15.4149C163.403 15.6986 163.756 16.0884 164.018 16.5815C164.281 17.0747 164.413 17.6315 164.413 18.2493C164.413 18.8671 164.281 19.4213 164.018 19.9144C163.756 20.4076 163.401 20.7974 162.958 21.0811C162.512 21.3648 162.027 21.508 161.502 21.508C161.017 21.508 160.587 21.4046 160.211 21.1924C159.834 20.9803 159.553 20.7178 159.365 20.397H159.315L159.365 21.2481V23.9765H158.315V15.1869H158.318ZM162.348 20.2724C162.655 20.0841 162.902 19.8137 163.088 19.4637C163.273 19.1137 163.366 18.708 163.366 18.2493C163.366 17.7906 163.273 17.3823 163.088 17.0323C162.902 16.6823 162.655 16.4118 162.348 16.2236C162.04 16.0353 161.703 15.9399 161.343 15.9399C160.982 15.9399 160.646 16.0327 160.338 16.2183C160.03 16.4039 159.784 16.6717 159.598 17.0217C159.413 17.3717 159.32 17.78 159.32 18.2493C159.32 18.7186 159.413 19.1163 159.598 19.4716C159.784 19.8243 160.03 20.0947 160.338 20.2803C160.646 20.4659 160.982 20.5587 161.343 20.5587C161.703 20.5587 162.04 20.4633 162.348 20.275V20.2724Z" fill="white"/>
<path d="M165.922 21.0148C165.468 20.686 165.153 20.2777 164.97 19.7925L165.895 19.3841C166.06 19.7713 166.293 20.0682 166.593 20.2724C166.892 20.4765 167.221 20.58 167.574 20.58C167.969 20.58 168.295 20.4924 168.555 20.3201C168.815 20.1478 168.944 19.9383 168.944 19.6917C168.944 19.4451 168.846 19.2569 168.655 19.1004C168.462 18.944 168.13 18.8088 167.661 18.6921L166.821 18.4826C166.359 18.3766 165.967 18.183 165.641 17.902C165.315 17.6236 165.153 17.2524 165.153 16.791C165.153 16.4118 165.262 16.0884 165.479 15.8153C165.696 15.5448 165.988 15.338 166.349 15.1975C166.712 15.0569 167.104 14.988 167.534 14.988C168.062 14.988 168.539 15.11 168.971 15.3513C169.403 15.5925 169.711 15.9372 169.891 16.3827L168.966 16.7777C168.833 16.4808 168.634 16.2634 168.367 16.1228C168.099 15.9823 167.802 15.9134 167.47 15.9134C167.139 15.9134 166.86 15.9903 166.601 16.1467C166.341 16.3031 166.211 16.5046 166.211 16.7512C166.211 16.966 166.296 17.133 166.463 17.2577C166.632 17.3823 166.9 17.491 167.271 17.5917L168.186 17.8145C168.796 17.9709 169.249 18.2042 169.549 18.5118C169.849 18.8194 170 19.1879 170 19.6175C170 19.9701 169.896 20.2936 169.692 20.58C169.488 20.8663 169.199 21.0943 168.828 21.2587C168.457 21.4231 168.038 21.5053 167.568 21.5053C166.919 21.5053 166.367 21.3409 165.914 21.0121L165.922 21.0148Z" fill="white"/>
<path d="M5.79999 17.0243L9.75595 14.7388C10.6866 14.2005 11.0074 13.01 10.4692 12.0794C9.93094 11.1487 8.74048 10.8279 7.80982 11.3661L0.97168 15.3141L5.79999 17.0243V17.0243Z" fill="#EA4335"/>
<path d="M8.78302 22.8973C9.45649 22.8973 10.1114 22.5473 10.472 21.9242C11.0103 20.9936 10.6895 19.8031 9.7588 19.2648L2.92066 15.3168C1.99 14.7785 0.799416 15.0994 0.261169 16.03C-0.277079 16.9607 0.0437329 18.1512 0.974397 18.6894L7.81254 22.6375C8.12011 22.8151 8.45423 22.9 8.78302 22.9V22.8973Z" fill="#4285F4"/>
<path d="M15.5839 22.8973C15.9153 22.8973 16.2494 22.8125 16.5544 22.6349L23.3925 18.6868L18.6252 16.9422L14.6055 19.2622C13.6748 19.8004 13.354 20.9909 13.8923 21.9216C14.2529 22.5474 14.9078 22.8947 15.5813 22.8947L15.5839 22.8973Z" fill="#FBBC04"/>
<path d="M22.4168 18.9493C23.0902 18.9493 23.7452 18.5993 24.1058 17.9762C24.644 17.0456 24.3232 15.855 23.3926 15.3168L16.5544 11.3688C15.6238 10.8305 14.4332 11.1513 13.8949 12.082C13.3567 13.0127 13.6776 14.2032 14.6083 14.7414L21.4463 18.6895C21.7539 18.8671 22.088 18.952 22.4168 18.952V18.9493Z" fill="#0F9D58"/>
</g>
<defs>
<clipPath id="clip0_16_64">
<rect width="170" height="35" fill="white"/>
</clipPath>
</defs>
</svg>
